<svg width="100" height="100" viewBox="0 0 100 100" xmlns="http://www.w3.org/2000/svg">
  <!-- Outer Circle -->
  <circle cx="50" cy="50" r="48" fill="white" stroke="#1e40af" stroke-width="2"/>
  
  <!-- Graduation Cap -->
  <path d="M50 30L75 42L50 54L25 42L50 30Z" fill="#1e40af"/>
  <path d="M30 45V55C30 55 40 60 50 60C60 60 70 55 70 55V45" fill="none" stroke="#1e40af" stroke-width="2"/>
  
  <!-- Magnifying Glass -->
  <circle cx="35" cy="55" r="5" fill="none" stroke="#7c3aed" stroke-width="1.5"/>
  <line x1="38" y1="58" x2="42" y2="62" stroke="#7c3aed" stroke-width="1.5"/>
  
  <!-- Dollar Sign -->
  <text x="45" y="65" font-family="Arial" font-size="12" fill="#f59e0b" font-weight="bold">$</text>
  
  <!-- Arrow Up -->
  <path d="M60 65L65 55L70 65" fill="none" stroke="#10b981" stroke-width="2"/>
  <line x1="65" y1="55" x2="65" y2="68" stroke="#10b981" stroke-width="2"/>
  
  <!-- Book at the bottom -->
  <path d="M30 75C40 70 60 70 70 75V85C60 80 40 80 30 85V75Z" fill="#1e40af"/>
  <line x1="50" y1="72" x2="50" y2="80" stroke="white" stroke-width="1"/>
</svg>
